<svg id="Camada_1" data-name="Camada 1" xmlns="http://www.w3.org/2000/svg" viewBox="0 0 717.04 222.67"><defs><style>.cls-1{fill:#fff;}</style></defs><path class="cls-1" d="M1390.46,250.19c-5,1.69-4.46,6-4.46,10q0,54.9,0,109.82c0,1.65.53,3.48-1,5.48-8.42-11.44-16.6-22.52-24.76-33.62l-64.15-87.21c-3.3-4.48-9.94-6.38-15.61-4.41-5,1.73-4.43,6-4.43,10q0,68.15,0,136.28c0,1.66,0,3.33.13,5a5.63,5.63,0,0,0,3.74,4.89c7.65,3.27,13.28-.48,13.28-8.81q0-55.41,0-110.81c0-1.65-.5-3.46.76-5.27,1.33,1.78,2.43,3.24,3.51,4.71q42.67,58.1,85.36,116.2c5,6.86,16,6.48,20.35-.65V254.9C1399.83,250.16,1395.47,248.52,1390.46,250.19Z" transform="translate(-686.19 -249.44)"/><path class="cls-1" d="M1265.13,302.09c-13.82-38.33-56.1-60-97.3-49.95-42.88,10.5-68.61,52.38-58.46,95.12,8.25,34.7,41.39,59.79,77,59.77a111.28,111.28,0,0,0,17.39-1.26C1251.53,398,1281.49,347.49,1265.13,302.09ZM1188.35,390c-35.22,0-63.93-27.73-63.89-61.77s28.65-61.48,64.15-61.44c35.16.05,63.57,27.49,63.6,61.43S1223.64,390,1188.35,390Z" transform="translate(-686.19 -249.44)"/><path class="cls-1" d="M777.94,329.57c-10.53-5.86-22.06-9.1-33.43-12.78-7.43-2.4-15-4.54-21.67-8.71-8.17-5.1-12.46-12.49-11.24-22.23,1.1-8.75,7.51-13,15.14-15.46,18.19-5.93,35.75-3.84,52.67,4.71,5.79,2.93,8.34,2.41,11.12-2.56,3.61-6.46,3-9.42-3-12.69-12.66-6.89-26.27-10.15-45.38-10.29-5.57-.14-15.45,1.79-24.94,5.77-14.11,5.91-22.82,16.08-23.57,31.66-.78,16.43,6.26,28.89,20.85,36.83,10.3,5.59,21.55,8.63,32.64,12.06,7.15,2.21,14.35,4.35,20.87,8.08,9.26,5.29,13.62,13.32,12.51,24.09-1,9.3-6.89,14.48-15,17.44-23.86,8.67-45.41,3.9-65-11.63-4.81-3.82-7.65-4-10.69-.42-4.65,5.5-4.82,9.53-.57,13.46,22.42,20.78,59.77,26.21,87.22,12.7,13.3-6.55,21.16-16.93,22-32C799.31,350.89,792.92,337.9,777.94,329.57Z" transform="translate(-686.19 -249.44)"/><path class="cls-1" d="M933.8,375.68c-16.27,13-34.73,16.88-54.92,13-38-7.29-60.28-48.11-45.5-83.52,16.78-40.17,68.92-50.55,100.55-24.11,4.79,4,7.78,3.66,11.43-.8,4.31-5.29,4.14-8-1-12.13C923.28,251,899.28,246.27,873.08,252c-41.55,9.09-68.54,50.79-59.85,92.08,7.78,37,40.26,62.74,83.76,63,14.89-.1,32.09-6.21,47.13-18.34,5-4,5.52-7.13,2.19-11.36C942.05,371.94,939.07,371.46,933.8,375.68Z" transform="translate(-686.19 -249.44)"/><path class="cls-1" d="M1094.12,388.62c5-4,5.41-7.09,2-11.37-4.21-5.3-7.23-5.75-12.55-1.5-16.12,12.89-34.4,16.7-54.44,13-38.38-7.08-60.91-48.63-45.71-84.19,16.33-38.15,66.06-50.13,99.68-24,5.68,4.41,8.43,4.32,12.23-.4,4.41-5.5,4.09-8-1.93-12.74-20.85-16.44-44.4-21-70.07-15.49a78.56,78.56,0,0,0-60.1,92.76c7.65,36.22,40.1,61.88,81.89,62.37C1061.6,407,1079,400.94,1094.12,388.62Z" transform="translate(-686.19 -249.44)"/><path class="cls-1" d="M1070.31,446.52h-3v0a57.21,57.21,0,0,0-8,.08c-2.67.39-4.12,2.27-4,5.13.18,3.17,2.63,1.71,4.14,1.92s3.35-.14,5,.11,4-1.25,4.73,1.18c.57,2-.61,3.85-2,5.4-3.15,3.62-11,4.82-16.8,2.59-6.63-2.54-10-8.42-9.09-15.93.66-5.5,4.35-8.58,11.55-9.67a20.79,20.79,0,0,1,13.92,2.64c4.42,2.59,5-1.49,6.57-3.49,2.45-3.12-1-3.58-2.57-4.36a30.1,30.1,0,0,0-19.42-2.39,22.39,22.39,0,0,0-18.3,23.22c.59,10.34,8.22,17.92,19,18.86,12.34,1.08,22.55-5.69,25-16.56C1078.76,447.84,1077.74,446.52,1070.31,446.52Z" transform="translate(-686.19 -249.44)"/><path class="cls-1" d="M1140.71,429.08c-12.84-.08-23.56,10.26-23.52,22.69,0,12,9,20.35,21.68,20.26s23.62-10.67,23.43-22.83C1162.13,437.73,1152.93,429.15,1140.71,429.08Zm.09,35c-9.12.09-15.46-5.85-15.47-14.5,0-7.84,5.09-12.57,13.48-12.51,8.64.06,15.14,6.16,15.34,14.39C1154.35,459.23,1149.32,464,1140.8,464.06Z" transform="translate(-686.19 -249.44)"/><path class="cls-1" d="M1110.28,463.71c-5.66-.12-11.34-.27-17,0-3.6.2-4.18-1.41-4-4.38.22-2.7-.86-5.83,3.94-5.51,5.14.34,10.32.09,15.48.06,3.25,0,4.76-1.93,4.9-5,.16-3.66-2.71-2.63-4.63-2.67-5.5-.11-11-.19-16.49,0-3.89.13-3-2.47-3.18-4.69-.14-2.39,0-4.14,3.29-4,5.48.25,11,0,16.49.08,3.65,0,4.74-2.31,5-5.35.28-3.85-2.72-2.57-4.54-2.6-7.5-.12-15,0-22.49-.08-4.15-.05-5.86,1.93-5.8,5.94.08,5.32,0,10.65,0,16,0,5.66,0,11.32,0,17,0,1.45-.31,3.12,2,3.12,9,0,18,.19,27-.12,3-.11,4-2.77,3.92-5.69C1114.2,462.67,1111.83,463.74,1110.28,463.71Z" transform="translate(-686.19 -249.44)"/><path class="cls-1" d="M1189.27,447.84c-2.1-.49-4.25-.78-6.34-1.32a68.15,68.15,0,0,1-7.12-2.21,3.67,3.67,0,0,1-2.56-3.86c.11-2.22,1.72-2.55,3.38-3,6-1.53,11.53.11,17,2.22,3.25,1.25,3.77-1.43,4.8-3.18,1.12-1.91,1.31-3.66-1.41-4.69-7.36-2.79-14.82-3.83-22.42-1.31-5.91,2-9.82,7.38-9.53,12.6.27,4.7,3.4,7.77,10,9.52,4.65,1.23,9.39,2.14,14,3.4a4.18,4.18,0,0,1,3.28,4.9c-.28,2.45-2.16,2.61-4,2.94-6.26,1.14-12.26-.07-18.07-2.26-3.58-1.34-4,1.44-5.1,3.42-1.25,2.25-.51,3.62,1.88,4.48a46.28,46.28,0,0,0,14.18,2.6c2-.13,4-.18,6-.41,7-.83,13.09-6.44,13.58-12.56C1201.34,453.34,1197.75,449.82,1189.27,447.84Z" transform="translate(-686.19 -249.44)"/><path class="cls-1" d="M1238.36,439.61c-.85-6.3-5.62-9.88-13.3-9.93-5,0-10,.06-14.94,0-4.14-.08-5.8,2-5.76,5.93.05,5.3,0,10.61,0,15.92,0,5.14-.09,10.29,0,15.43,0,2-1.25,4.9,2.89,4.79,3.51-.09,5.06-1.85,5.32-5a42.35,42.35,0,0,0,0-6.47c-.21-2.76.78-3.83,3.66-3.76,4,.08,8,.5,11.88-.65A14.8,14.8,0,0,0,1238.36,439.61Zm-8,5.83c-.45,3.12-2.87,3.2-5.27,3.22h-5.47c-6.62,0-8.8-3-6.85-9.33.27-.89.61-1.61,1.56-1.61,4.13,0,8.37-.79,12.36.42C1230,439.16,1230.79,442.17,1230.31,445.44Z" transform="translate(-686.19 -249.44)"/><path class="cls-1" d="M1350.11,433.92c-.9-1.7-1.27-4.63-3.35-4.53-2.26.11-3.51,2.64-4.59,4.72-5.89,11.34-11.84,22.65-17.71,34-.51,1-1.44,1.92-1,3.12,5.16,1.86,7.62-1.08,9.77-5.09,1.16-2.18,1.23-5.68,4.67-5.78,5.15-.15,10.52-.76,15.37.49,3,.79,3.5,5.67,5.28,8.61.08.15.18.28.26.43,1.79,3.23,4.91,2.11,7,1.27,1.7-.69,2.54-2.8,1-5.53C1361,455.2,1355.7,444.48,1350.11,433.92Zm-1.24,18.39c-1.31,1.92-5.19.61-8.45.49a13,13,0,0,1,.51-1.83c1.17-2.34,2.38-4.67,3.53-6.91a1.28,1.28,0,0,1,1.59.9C1347,447.5,1350.26,450.28,1348.87,452.31Z" transform="translate(-686.19 -249.44)"/><path class="cls-1" d="M1260.74,432.74c-2.37-4.52-3.88-4.83-6.24-.5-7,12.8-13.55,25.79-20.39,38.93,5.54,1.62,8.55-.62,10-4.78,1.79-5,5-6.05,10.14-6.38,7.74-.5,13.11,1.07,15.42,9.15,1.1,3.86,4.77,3,7.06,2.07,2-.83,2.71-3.08,1.15-5.9C1272,454.59,1266.45,443.61,1260.74,432.74Zm-.48,19.37c-1.66,2.21-5.4.71-8.57.71.78-3.46,2.72-6,4.44-9.46a21.22,21.22,0,0,1,1.26,1.87C1258.47,447.58,1261.44,450.53,1260.26,452.11Z" transform="translate(-686.19 -249.44)"/><path class="cls-1" d="M1307.37,429.71c-4.32-.12-8.65,0-13,0-5,0-10-.17-15,.07-3.1.15-4.3,2.31-4.36,5.35-.06,3.42,2.38,2.45,4.17,2.54a37.31,37.31,0,0,0,6,0c3.11-.32,4,.94,3.92,4-.17,8.8-.09,17.61,0,26.42,0,3.31,2.74,5.11,5.4,3.36a5.65,5.65,0,0,0,2.86-5.17c-.25-6.47-.08-13-.08-19.44,0-8.78,0-8.78,8.55-9.09.67,0,1.47.19,2-.1,2.14-1.24,3.61-2.85,3.5-5.67C1311.19,428.7,1308.93,429.75,1307.37,429.71Z" transform="translate(-686.19 -249.44)"/><path class="cls-1" d="M1395.6,463.69c-4.49-.08-9-.23-13.47,0-3.43.21-4.64-.84-4.54-4.4.23-8.63-.06-17.28.14-25.92.07-3.21-1.19-4.19-4.09-3.72-3.06.49-4.3,2.43-4.29,5.41,0,5.48,0,11,0,16.45h0c0,5.65,0,11.31,0,17,0,1.49-.18,3.13,2.1,3.13,8.15,0,16.31.21,24.45-.11,2.66-.11,3.89-2.5,3.92-5.32C1399.85,462.81,1397.39,463.72,1395.6,463.69Z" transform="translate(-686.19 -249.44)"/><path class="cls-1" d="M1318.66,429.64c-3.63.18-5.21,2.08-5.22,5.52,0,5.48,0,10.95,0,16.43,0,5-.12,10,.06,14.93.07,2.08-1.51,5.35,3,5.19,3.8-.13,5.26-2.19,5.28-5.59,0-11.12,0-22.23,0-33.35C1321.84,430.43,1321.05,429.52,1318.66,429.64Z" transform="translate(-686.19 -249.44)"/><path class="cls-1" d="M1212.18,287c-4.82-1.66-7.22,1.74-9.4,6.12-7.8,15.63-14,31.93-20.23,48.2-4.11,10.69-4.14,10.67,5.59,16.8,4.32,2.71,5.67,2.27,7.13-2.68,6-20.6,14.54-40.26,23.19-59.85C1222.06,287.45,1222.11,287.47,1212.18,287Z" transform="translate(-686.19 -249.44)"/><path class="cls-1" d="M1180.19,304.79c-4.3-1.18-6.72,1.67-8.59,5.6-7.18,15-12.15,30.86-17.49,46.58-1.87,5.49-1.08,9.13,3,13.14,2.82,2.8,4.08,2.19,5.58-.68a22.65,22.65,0,0,0,1.23-3.25c6.25-18.92,13.3-37.55,20.64-56.07C1186.62,304.81,1186.59,304.8,1180.19,304.79Z" transform="translate(-686.19 -249.44)"/></svg>